<svg xmlns="http://www.w3.org/2000/svg" width="24" height="24" fill="none"><path fill="#141124" d="M9.468 18.494v-.455H6.05A2.053 2.053 0 0 1 4 15.987v-.347a2.32 2.32 0 0 1 1.289-2.086 1.138 1.138 0 0 0 .629-.918l.407-4.476a5.674 5.674 0 0 1 11.3 0l.407 4.476a1.132 1.132 0 0 0 .625.916 2.323 2.323 0 0 1 1.293 2.088v.347a2.052 2.052 0 0 1-2.05 2.051h-3.419v.455a2.507 2.507 0 0 1-5.013 0v.001Zm1.367 0a1.14 1.14 0 0 0 2.279 0v-.455h-2.278l-.001.455ZM7.686 8.284l-.407 4.476A2.492 2.492 0 0 1 5.9 14.775a.961.961 0 0 0-.536.865v.347a.684.684 0 0 0 .683.684H17.9a.685.685 0 0 0 .684-.684v-.347a.96.96 0 0 0-.534-.864 2.5 2.5 0 0 1-1.38-2.016l-.407-4.476a4.307 4.307 0 0 0-8.578 0h.001Z"/></svg>