<svg xmlns="http://www.w3.org/2000/svg" width="24" height="24" fill="none"><path fill="#000" d="M12 19.861c-.64-.057-1.25-.3-1.753-.7a16.725 16.725 0 0 1-1.887-1.547c-1.124-1.042-2.46-2.443-3.975-4.166A5.775 5.775 0 0 1 4.612 5.7 5.374 5.374 0 0 1 12 5.269a5.379 5.379 0 0 1 7.39.427 5.775 5.775 0 0 1 .227 7.753c-1.514 1.722-2.851 3.124-3.975 4.166a16.73 16.73 0 0 1-1.886 1.544c-.504.4-1.115.645-1.756.702ZM8.534 5.6a3.907 3.907 0 0 0-2.841 1.225 4.13 4.13 0 0 0-.182 5.544c1.481 1.685 2.781 3.048 3.864 4.05.532.507 1.1.975 1.7 1.4.27.216.587.368.925.445a2.3 2.3 0 0 0 .924-.446 15.12 15.12 0 0 0 1.7-1.4c1.083-1 2.383-2.365 3.864-4.05a4.131 4.131 0 0 0-.182-5.544 3.892 3.892 0 0 0-5.351-.31L12 7.315l-.957-.8A3.925 3.925 0 0 0 8.535 5.6h-.001Z"/></svg>